<?xml version="1.0" encoding="utf-8"?>
<!-- Generator: Adobe Illustrator 21.1.0, SVG Export Plug-In . SVG Version: 6.00 Build 0)  -->
<svg version="1.1" id="Ebene_1" xmlns="http://www.w3.org/2000/svg" xmlns:xlink="http://www.w3.org/1999/xlink" x="0px" y="0px"
	 viewBox="0 0 72.7 48.8" style="enable-background:new 0 0 72.7 48.8;" xml:space="preserve">
<style type="text/css">
	.st0{fill:#FFFFFF;}
</style>
<polygon class="st0" points="25.3,10.9 20.7,26.8 20.6,26.8 15.9,10.9 6.9,10.9 6.9,36.6 12.2,36.6 12.2,15.7 18.4,36 22.8,36 
	29,15.7 29,36.6 34.3,36.6 34.3,10.9 "/>
<polygon class="st0" points="66.7,3.4 59.1,21.7 59.1,10.9 54,10.9 54,21.2 42.2,21.2 42.2,10.9 37.1,10.9 37.1,36.3 42.2,36.3 
	42.2,25.4 54,25.4 54,34.1 49.7,44.4 51.2,44.4 68.2,3.4 "/>
</svg>
